Coordinates
version=1
nRows=13
nColumns=36
inDegrees=yes

Units are S.I. units (second, meters, Newtons, ...)
If the header above contains a line with 'inDegrees', this indicates whether rotational values are in degrees (yes) or radians (no).

endheader
time	pelvis_tilt	pelvis_list	pelvis_rotation	pelvis_tx	pelvis_ty	pelvis_tz	hip_flexion_r	hip_adduction_r	hip_rotation_r	knee_angle_r	knee_angle_r_beta	ankle_angle_r	subtalar_angle_r	mtp_angle_r	hip_flexion_l	hip_adduction_l	hip_rotation_l	knee_angle_l	knee_angle_l_beta	ankle_angle_l	subtalar_angle_l	mtp_angle_l	lumbar_extension	lumbar_bending	lumbar_rotation	arm_flex_r	arm_add_r	arm_rot_r	elbow_flex_r	pro_sup_r	arm_flex_l	arm_add_l	arm_rot_l	elbow_flex_l	pro_sup_l
     30.00000000	      2.91109404	     -0.81423431	     -1.51687296	      0.67228641	      1.04208240	      0.70430203	     26.02455124	      0.01145877	      0.66006414	     35.80799121	      0.62496735	      3.14826673	    -10.80149650	     -7.49999987	     -1.54712716	      1.92945984	      1.64200310	     14.12642612	      0.24655265	     15.42152212	     -1.67611977	     -7.49999987	    -19.22311674	     -2.11993568	      2.53179870	     -1.78543010	    -15.11487156	     -4.19345675	     33.58129909	     85.69256807	     18.79140258	    -16.61931662	     26.44874114	     34.17746901	     88.23873597
     30.01666670	      3.01835604	     -0.74268564	     -1.40969573	      0.67055521	      1.03889385	      0.70544908	     26.25722562	     -0.07673258	      0.46735047	     31.52801302	      0.55026763	      2.94043934	     -9.42225061	     -7.49999987	     -2.45560147	      2.00420132	      1.66305387	     14.15925825	      0.24712568	     16.27861689	     -1.63038720	     -7.49999987	    -19.39765217	     -1.97580483	      2.23906599	     -1.71678943	    -14.96039258	     -4.43153703	     33.04397803	     86.91417169	     19.16967321	    -16.96252045	     25.89188797	     34.76295448	     88.63010240
     30.03333330	      2.99717895	     -0.61667328	     -1.26651195	      0.66864364	      1.03499680	      0.70651904	     26.60340751	     -0.20583211	      0.29820060	     27.38022634	      0.47787510	      2.88181492	     -7.76099735	     -7.49999987	     -3.10311222	      2.08310169	      1.62221295	     14.39392967	      0.25122147	     17.27278323	     -1.84738624	     -7.49999987	    -19.47404761	     -1.93222339	      2.00344834	     -1.63087706	    -14.74496957	     -4.65455485	     32.46237133	     87.69785344	     19.49346359	    -17.22227359	     25.07017678	     35.34140775	     88.90931808
     30.05000000	      2.94347623	     -0.44649262	     -1.13690844	      0.66729798	      1.03340738	      0.70724470	     26.90549771	     -0.40010751	      0.13067891	     23.46199075	      0.40948899	      2.91526110	     -5.77526724	     -7.49999987	     -3.50165452	      2.12077906	      1.36736629	     14.89099996	      0.25989698	     18.72405591	     -2.01646528	     -7.49999987	    -19.56666412	     -1.91952104	      1.78708364	     -1.50903459	    -14.55868430	     -4.78669998	     31.92386085	     88.29340674	     19.75052806	    -17.43898492	     24.36503527	     35.82893881	     89.10293351
     30.06666670	      2.91226166	     -0.19379282	     -0.97024991	      0.66652241	      1.03441259	      0.70782343	     27.12704398	     -0.72879074	     -0.03669232	     20.01797803	      0.34937963	      2.91049932	     -3.68352865	     -7.49999987	     -3.62394464	      2.16398033	      1.05652934	     15.72744028	      0.27449562	     20.73581515	     -2.18655931	     -7.49999987	    -19.68092793	     -1.98385635	      1.47463739	     -1.32991274	    -14.35569301	     -4.67551789	     31.35264271	     88.29018453	     19.85878121	    -17.67519263	     23.62291824	     36.20614359	     88.72608548
     30.08333330	      2.92380117	      0.09562066	     -0.73219027	      0.66521452	      1.03733899	      0.70903090	     27.28566672	     -1.13544954	     -0.17293734	     17.27988613	      0.30159091	      2.90496585	     -1.74664607	     -7.49999987	     -3.50344106	      2.17466065	      0.66770902	     16.90405122	      0.29503135	     23.13004436	     -2.23564461	     -7.49999987	    -19.88508673	     -2.02298556	      0.98981384	     -1.02802850	    -14.18339477	     -4.50844664	     30.94850531	     89.05931753	     19.80904271	    -17.89681570	     22.81522966	     36.53654082	     89.08224361
     30.10000000	      2.93268716	      0.32849858	     -0.37954070	      0.66313054	      1.04063793	      0.71080811	     27.49742463	     -1.51762945	     -0.32850174	     15.39554572	      0.26870296	      2.82272453	     -0.34583333	     -7.49999987	     -3.19567595	      2.08226905	      0.22874769	     18.41054568	      0.32132464	     25.59832095	     -2.18991705	     -7.49999987	    -20.07398302	     -1.96962219	      0.48745243	     -0.64045582	    -13.95208278	     -4.18506732	     30.33928660	     89.97329317	     19.66331675	    -18.04357905	     21.91021275	     36.78817769	     89.67781795
     30.11666670	      2.73675507	      0.56582085	     -0.05719293	      0.66156837	      1.04252251	      0.71197231	     28.02090326	     -1.90825836	     -0.56170688	     14.50639013	      0.25318427	      2.94935441	      0.83286444	     -7.49999987	     -2.79283972	      2.03626426	     -0.26236143	     19.78346681	      0.34528663	     27.63542823	     -2.20252579	     -7.49999987	    -19.98722043	     -1.94303362	      0.31546712	     -0.57137017	    -13.80422935	     -4.44862110	     29.95701207	     90.17021297	     19.76043755	    -17.94788646	     21.51332386	     36.56469165	     89.81722300
     30.13333330	      2.63763444	      0.67644274	      0.31644211	      0.66168638	      1.04284286	      0.71242877	     28.31138028	     -2.17499252	     -0.83011853	     14.30890360	      0.24973748	      3.04055140	      1.27060343	     -7.49999987	     -2.81508719	      1.90741747	     -0.73581447	     20.79590995	      0.36295710	     29.29889848	     -1.99974148	     -7.49999987	    -19.84756775	     -1.69177308	     -0.18371831	     -0.07429776	    -13.73041705	     -3.92928749	     29.14827485	     90.09216195	     19.52353697	    -17.84800641	     21.05417023	     36.10445251	     89.47154687
     30.15000000	      2.65403662	      0.64433419	      0.60302076	      0.66403994	      1.04348028	      0.71346196	     28.26182699	     -2.24245475	     -1.14226581	     14.75215974	      0.25747376	      3.19975310	      1.14255567	     -7.49999987	     -3.41562965	      1.71541055	     -1.19523645	     21.25022299	      0.37088636	     30.45762875	     -1.86413896	     -7.49999987	    -19.76318156	     -1.30173290	     -0.39333673	      0.02198220	    -13.71003009	     -3.94680851	     29.04011442	     90.18814465	     19.25925922	    -17.66840986	     21.00445236	     35.78526901	     89.55688385
     30.16666670	      2.77470860	      0.43363584	      0.81448508	      0.66880452	      1.04478466	      0.71540490	     27.75856069	     -2.06678307	     -1.54966563	     15.57479176	      0.27183140	      3.04011325	      0.58402442	     -7.49999987	     -4.58109149	      1.32610256	     -1.98399377	     21.12668046	      0.36873013	     31.42789538	     -0.84546156	     -7.49999987	    -19.51461052	     -0.72265516	     -0.73420389	      0.32647296	    -13.68024793	     -3.85503780	     28.52625275	     90.41087564	     18.78491393	    -17.37045029	     20.81221183	     34.81184254	     89.68975176
     30.18333330	      2.96020715	      0.06099545	      0.97947075	      0.67447957	      1.04523471	      0.71725690	     26.95247809	     -1.69208698	     -1.94798423	     16.63842470	      0.29039529	      2.60111808	     -0.29069120	     -7.49999987	     -6.03845479	      0.84136592	     -2.60086471	     20.70363249	      0.36134655	     31.92230841	     -0.10971554	     -7.49999987	    -19.15038025	     -0.06014995	     -0.84428944	      0.76001766	    -13.77360531	     -3.23178560	     27.16988891	     89.71050315	     18.24513874	    -16.76576518	     20.44971554	     33.60052049	     88.85869777
     30.20000000	      3.15596093	     -0.40924260	      1.00719400	      0.67947360	      1.04446484	      0.71944469	     26.02007160	     -1.12293025	     -2.03810890	     17.65392213	      0.30811907	      1.84698642	     -1.44355909	     -7.49999987	     -7.54782196	      0.23046406	     -3.49248270	     20.21884966	      0.35288550	     32.27213408	      0.95906254	     -7.49999987	    -18.79392284	      0.67322353	     -1.15957198	      1.17062618	    -13.98718362	     -1.86159252	     26.43591582	     89.87847767	     17.35298007	    -16.52466036	     20.45108520	     32.60247268	     88.83939440
